<?xml version="1.0" encoding="UTF-8" standalone="no"?>
<!-- Created with Inkscape (http://www.inkscape.org/) -->

<svg
   xmlns:dc="http://purl.org/dc/elements/1.1/"
   xmlns:cc="http://creativecommons.org/ns#"
   xmlns:rdf="http://www.w3.org/1999/02/22-rdf-syntax-ns#"
   xmlns:svg="http://www.w3.org/2000/svg"
   xmlns="http://www.w3.org/2000/svg"
   xmlns:sodipodi="http://sodipodi.sourceforge.net/DTD/sodipodi-0.dtd"
   xmlns:inkscape="http://www.inkscape.org/namespaces/inkscape"
   width="64px"
   height="64px"
   id="svg2985"
   version="1.1"
   inkscape:version="0.48.3.1 r9886"
   sodipodi:docname="Skofo-pencil-outlined.svg"
   inkscape:export-filename="C:\Users\Syltur\Projects\piki (take 4)\concept\pencil.png"
   inkscape:export-xdpi="140.625"
   inkscape:export-ydpi="140.625">
  <defs
     id="defs2987" />
  <sodipodi:namedview
     id="base"
     pagecolor="#ffffff"
     bordercolor="#666666"
     borderopacity="1.0"
     inkscape:pageopacity="0.0"
     inkscape:pageshadow="2"
     inkscape:zoom="5.046875"
     inkscape:cx="32"
     inkscape:cy="32"
     inkscape:current-layer="layer1"
     showgrid="true"
     inkscape:document-units="px"
     inkscape:grid-bbox="true"
     inkscape:window-width="703"
     inkscape:window-height="583"
     inkscape:window-x="217"
     inkscape:window-y="49"
     inkscape:window-maximized="0" />
  <metadata
     id="metadata2990">
    <rdf:RDF>
      <cc:Work
         rdf:about="">
        <dc:format>image/svg+xml</dc:format>
        <dc:type
           rdf:resource="http://purl.org/dc/dcmitype/StillImage" />
        <dc:title></dc:title>
      </cc:Work>
    </rdf:RDF>
  </metadata>
  <g
     id="layer1"
     inkscape:label="Layer 1"
     inkscape:groupmode="layer"
     style="display:inline">
    <path
       style="fill:none;stroke:#ffffff;stroke-width:1.25;stroke-linecap:butt;stroke-linejoin:miter;stroke-miterlimit:4;stroke-opacity:0;stroke-dasharray:none"
       d="M 48.657038,25.873224 C 39.578959,35.260819 30.500876,44.648415 21.422795,54.036014"
       id="path3895"
       inkscape:connector-curvature="0" />
    <path
       style="fill:none;stroke:#ffffff;stroke-width:1.25;stroke-linecap:butt;stroke-linejoin:miter;stroke-miterlimit:4;stroke-opacity:0;stroke-dasharray:none"
       d="M 37.676512,15.350125 C 28.686569,24.64658 19.696626,33.943036 10.706681,43.239492"
       id="path3893"
       inkscape:connector-curvature="0" />
    <path
       style="font-size:medium;font-style:normal;font-variant:normal;font-weight:normal;font-stretch:normal;text-indent:0;text-align:start;text-decoration:none;line-height:normal;letter-spacing:normal;word-spacing:normal;text-transform:none;direction:ltr;block-progression:tb;writing-mode:lr-tb;text-anchor:start;baseline-shift:baseline;color:#000000;fill:#9e1818;fill-opacity:1;stroke:none;stroke-width:3;marker:none;visibility:visible;display:inline;overflow:visible;enable-background:accumulate;font-family:Sans;-inkscape-font-specification:Sans"
       d="m 48.03125,-0.09375 c -1.741331,0.0879 -3.460735,0.491029 -5.0625,1.125 -3.203531,1.267941 -6.039597,3.402724 -8.28125,5.75 l -30.65625,31.6875 -0.375,0.375 L 3.625,39.375 1.375,62.125 1.1875,64.03125 3.09375,63.75 25.4375,60.5625 l 0.5,-0.09375 0.34375,-0.375 L 53.46875,32 c 0.0098,-0.01004 0.02141,-0.0212 0.03125,-0.03125 3.810377,-3.891678 8.381542,-8.131004 9.65625,-14.3125 0.0048,-0.02341 0.02652,-0.03903 0.03125,-0.0625 l -0.03125,0 C 64.917937,10.289238 59.773535,3.262585 53.3125,0.71875 L 53.28125,0.6875 c -1.75028,-0.66128 -3.508669,-0.869149 -5.25,-0.78125 z m 0.125,2.96875 c 1.365418,-0.07105 2.715505,0.116087 4.0625,0.625 5.206672,2.049967 9.397012,7.896812 8.03125,13.4375 l 0,0.03125 0,0.03125 c -0.527574,2.615839 -1.847756,4.912222 -3.53125,7.0625 L 38.9375,6.9375 c 1.571905,-1.2838816 3.330916,-2.4025423 5.15625,-3.125 1.344363,-0.532092 2.697082,-0.866454 4.0625,-0.9375 z M 36.75,8.9375 l 18,17.40625 c -0.625382,0.684058 -1.279947,1.356562 -1.9375,2.03125 l -17.96875,-17.4375 1.90625,-2 z m -1.21875,7.03125 2.1875,2.125 c -0.709634,0.716064 -1.547101,1.562106 -2.625,2.65625 -2.51296,2.550834 -5.852675,5.950247 -9.21875,9.375 -3.366075,3.424753 -6.740115,6.845591 -9.3125,9.46875 -1.210541,1.234436 -2.201391,2.246789 -2.96875,3.03125 l -2.1875,-2.09375 c 0.651599,-0.65704 1.361912,-1.346245 2.34375,-2.34375 2.474303,-2.513783 5.863595,-5.976662 9.59375,-9.78125 l 12.1875,-12.4375 z M 46.25,26.25 l 2.125,2.0625 c -0.644362,0.649821 -1.282316,1.30141 -2.21875,2.25 -2.527693,2.560506 -6.0114,6.094846 -9.8125,9.96875 l -12.125,12.375 -2.125,-2.0625 c 0.685691,-0.693693 1.273664,-1.272307 3.03125,-3.0625 2.487698,-2.53385 5.844852,-5.937971 9.46875,-9.625 3.623922,-3.687052 6.916708,-7.053532 9.3125,-9.5 C 44.895841,27.645727 45.609409,26.905802 46.25,26.25 z M 6.5,40.4375 l 17.71875,17.21875 -12.0625,1.75 C 11.649382,58.80751 10.068166,57.2053 8.46875,55.625 7.4421882,54.610703 6.6850676,53.916644 6.09375,53.46875 5.8107623,53.254401 5.585846,53.117918 5.28125,53 L 6.5,40.4375 z"
       id="path3051"
       inkscape:connector-curvature="0" />
  </g>
</svg>
